HIERARCHY
ROOT Hips
{
	OFFSET -339.306915 540.749023 89.171944
	CHANNELS 6 Xposition Yposition Zposition Zrotation Yrotation Xrotation
	JOINT Spine
	{
		OFFSET 0.000000 2.080078 8.814247
		CHANNELS 6 Xposition Yposition Zposition Zrotation Yrotation Xrotation
		JOINT Spine1
		{
			OFFSET 0.000000 0.000000 8.844139
			CHANNELS 6 Xposition Yposition Zposition Zrotation Yrotation Xrotation
			JOINT Spine2
			{
				OFFSET 0.000000 0.000000 11.682266
				CHANNELS 6 Xposition Yposition Zposition Zrotation Yrotation Xrotation
				JOINT Spine3
				{
					OFFSET 0.000000 0.000000 11.746696
					CHANNELS 6 Xposition Yposition Zposition Zrotation Yrotation Xrotation
					JOINT Neck
					{
						OFFSET 0.000000 0.000000 17.658264
						CHANNELS 6 Xposition Yposition Zposition Zrotation Yrotation Xrotation
						JOINT Neck1
						{
							OFFSET 0.000000 0.000000 5.101517
							CHANNELS 6 Xposition Yposition Zposition Zrotation Yrotation Xrotation
							JOINT Head
							{
								OFFSET 0.000000 0.000000 5.101517
								CHANNELS 6 Xposition Yposition Zposition Zrotation Yrotation Xrotation
								JOINT HeadEnd
								{
									OFFSET 0.000000 0.000000 11.655090
									CHANNELS 6 Xposition Yposition Zposition Zrotation Yrotation Xrotation
									End Site
									{
										OFFSET 0.000000 0.000000 0.100006
									}
								}
							}
						}
					}
					JOINT RightShoulder
					{
						OFFSET -2.625397 0.000000 11.175217
						CHANNELS 6 Xposition Yposition Zposition Zrotation Yrotation Xrotation
						JOINT RightArm
						{
							OFFSET 0.000000 0.000000 10.434708
							CHANNELS 6 Xposition Yposition Zposition Zrotation Yrotation Xrotation
							JOINT RightForeArm
							{
								OFFSET 0.000000 0.000000 29.628418
								CHANNELS 6 Xposition Yposition Zposition Zrotation Yrotation Xrotation
								JOINT RightHand
								{
									OFFSET 0.000000 0.000000 22.857605
									CHANNELS 6 Xposition Yposition Zposition Zrotation Yrotation Xrotation
									JOINT RightHandThumb1
									{
										OFFSET -2.867310 -2.944275 3.959564
										CHANNELS 6 Xposition Yposition Zposition Zrotation Yrotation Xrotation
										JOINT RightHandThumb2
										{
											OFFSET 0.000000 0.000000 3.350403
											CHANNELS 6 Xposition Yposition Zposition Zrotation Yrotation Xrotation
											JOINT RightHandThumb3
											{
												OFFSET 0.000000 0.000000 3.756516
												CHANNELS 6 Xposition Yposition Zposition Zrotation Yrotation Xrotation
												JOINT RightHandThumb4
												{
													OFFSET 0.000000 0.000000 3.147339
													CHANNELS 6 Xposition Yposition Zposition Zrotation Yrotation Xrotation
													End Site
													{
														OFFSET 0.000000 0.000000 0.100006
													}
												}
											}
										}
									}
									JOINT RightHandIndex1
									{
										OFFSET -0.086761 -2.345276 10.030899
										CHANNELS 6 Xposition Yposition Zposition Zrotation Yrotation Xrotation
										JOINT RightHandIndex2
										{
											OFFSET 0.000000 0.000000 4.061096
											CHANNELS 6 Xposition Yposition Zposition Zrotation Yrotation Xrotation
											JOINT RightHandIndex3
											{
												OFFSET 0.000000 0.000000 3.248871
												CHANNELS 6 Xposition Yposition Zposition Zrotation Yrotation Xrotation
												JOINT RightHandIndex4
												{
													OFFSET 0.000000 0.000000 2.639709
													CHANNELS 6 Xposition Yposition Zposition Zrotation Yrotation Xrotation
													End Site
													{
														OFFSET 0.000000 0.000000 0.100006
													}
												}
											}
										}
									}
									JOINT RightHandMiddle1
									{
										OFFSET 0.104095 -0.006775 9.502945
										CHANNELS 6 Xposition Yposition Zposition Zrotation Yrotation Xrotation
										JOINT RightHandMiddle2
										{
											OFFSET 0.000000 0.000000 4.568726
											CHANNELS 6 Xposition Yposition Zposition Zrotation Yrotation Xrotation
											JOINT RightHandMiddle3
											{
												OFFSET 0.000000 0.000000 3.654984
												CHANNELS 6 Xposition Yposition Zposition Zrotation Yrotation Xrotation
												JOINT RightHandMiddle4
												{
													OFFSET 0.000000 0.000000 2.741241
													CHANNELS 6 Xposition Yposition Zposition Zrotation Yrotation Xrotation
													End Site
													{
														OFFSET 0.000000 0.000000 0.100006
													}
												}
											}
										}
									}
									JOINT RightHandRing1
									{
										OFFSET 0.086761 2.267456 8.921707
										CHANNELS 6 Xposition Yposition Zposition Zrotation Yrotation Xrotation
										JOINT RightHandRing2
										{
											OFFSET 0.000000 0.000000 4.061096
											CHANNELS 6 Xposition Yposition Zposition Zrotation Yrotation Xrotation
											JOINT RightHandRing3
											{
												OFFSET 0.000000 0.000000 3.654984
												CHANNELS 6 Xposition Yposition Zposition Zrotation Yrotation Xrotation
												JOINT RightHandRing4
												{
													OFFSET 0.000000 0.000000 2.741241
													CHANNELS 6 Xposition Yposition Zposition Zrotation Yrotation Xrotation
													End Site
													{
														OFFSET 0.000000 0.000000 0.100006
													}
												}
											}
										}
									}
									JOINT RightHandPinky1
									{
										OFFSET -0.173492 4.467224 7.976990
										CHANNELS 6 Xposition Yposition Zposition Zrotation Yrotation Xrotation
										JOINT RightHandPinky2
										{
											OFFSET 0.000000 0.000000 3.350403
											CHANNELS 6 Xposition Yposition Zposition Zrotation Yrotation Xrotation
											JOINT RightHandPinky3
											{
												OFFSET 0.000000 0.000000 2.842758
												CHANNELS 6 Xposition Yposition Zposition Zrotation Yrotation Xrotation
												JOINT RightHandPinky4
												{
													OFFSET 0.000000 0.000000 2.639709
													CHANNELS 6 Xposition Yposition Zposition Zrotation Yrotation Xrotation
													End Site
													{
														OFFSET 0.000000 0.000000 0.100006
													}
												}
											}
										}
									}
									JOINT RightForeArmEnd
									{
										OFFSET 0.000000 0.000000 0.000000
										CHANNELS 6 Xposition Yposition Zposition Zrotation Yrotation Xrotation
										End Site
										{
											OFFSET 0.000000 0.000000 0.100006
										}
									}
								}
								JOINT RightArmEnd
								{
									OFFSET 0.000000 0.000000 0.000000
									CHANNELS 6 Xposition Yposition Zposition Zrotation Yrotation Xrotation
									End Site
									{
										OFFSET 0.000000 0.000000 0.100006
									}
								}
							}
						}
					}
					JOINT LeftShoulder
					{
						OFFSET 2.625397 0.000000 11.175217
						CHANNELS 6 Xposition Yposition Zposition Zrotation Yrotation Xrotation
						JOINT LeftArm
						{
							OFFSET 0.000000 0.000000 10.813629
							CHANNELS 6 Xposition Yposition Zposition Zrotation Yrotation Xrotation
							JOINT LeftForeArm
							{
								OFFSET 0.000000 0.000000 28.724777
								CHANNELS 6 Xposition Yposition Zposition Zrotation Yrotation Xrotation
								JOINT LeftHand
								{
									OFFSET 0.644379 0.328857 25.716171
									CHANNELS 6 Xposition Yposition Zposition Zrotation Yrotation Xrotation
									JOINT LeftHandThumb1
									{
										OFFSET 2.867310 -2.944275 3.959564
										CHANNELS 6 Xposition Yposition Zposition Zrotation Yrotation Xrotation
										JOINT LeftHandThumb2
										{
											OFFSET 0.000000 0.000000 3.350403
											CHANNELS 6 Xposition Yposition Zposition Zrotation Yrotation Xrotation
											JOINT LeftHandThumb3
											{
												OFFSET 0.000000 0.000000 3.756516
												CHANNELS 6 Xposition Yposition Zposition Zrotation Yrotation Xrotation
												JOINT LeftHandThumb4
												{
													OFFSET 0.000000 0.000000 3.100006
													CHANNELS 6 Xposition Yposition Zposition Zrotation Yrotation Xrotation
													End Site
													{
														OFFSET 0.000000 0.000000 0.100006
													}
												}
											}
										}
									}
									JOINT LeftHandIndex1
									{
										OFFSET 0.086761 -2.345276 10.030899
										CHANNELS 6 Xposition Yposition Zposition Zrotation Yrotation Xrotation
										JOINT LeftHandIndex2
										{
											OFFSET 0.000000 0.000000 4.061096
											CHANNELS 6 Xposition Yposition Zposition Zrotation Yrotation Xrotation
											JOINT LeftHandIndex3
											{
												OFFSET 0.000000 0.000000 3.248871
												CHANNELS 6 Xposition Yposition Zposition Zrotation Yrotation Xrotation
												JOINT LeftHandIndex4
												{
													OFFSET 0.000000 0.000000 2.639709
													CHANNELS 6 Xposition Yposition Zposition Zrotation Yrotation Xrotation
													End Site
													{
														OFFSET 0.000000 0.000000 0.100006
													}
												}
											}
										}
									}
									JOINT LeftHandMiddle1
									{
										OFFSET -0.104095 -0.006775 9.502945
										CHANNELS 6 Xposition Yposition Zposition Zrotation Yrotation Xrotation
										JOINT LeftHandMiddle2
										{
											OFFSET 0.000000 0.000000 4.568726
											CHANNELS 6 Xposition Yposition Zposition Zrotation Yrotation Xrotation
											JOINT LeftHandMiddle3
											{
												OFFSET 0.000000 0.000000 3.654984
												CHANNELS 6 Xposition Yposition Zposition Zrotation Yrotation Xrotation
												JOINT LeftHandMiddle4
												{
													OFFSET 0.000000 0.000000 2.741241
													CHANNELS 6 Xposition Yposition Zposition Zrotation Yrotation Xrotation
													End Site
													{
														OFFSET 0.000000 0.000000 0.100006
													}
												}
											}
										}
									}
									JOINT LeftHandRing1
									{
										OFFSET -0.086761 2.267456 8.921707
										CHANNELS 6 Xposition Yposition Zposition Zrotation Yrotation Xrotation
										JOINT LeftHandRing2
										{
											OFFSET 0.000000 0.000000 4.061096
											CHANNELS 6 Xposition Yposition Zposition Zrotation Yrotation Xrotation
											JOINT LeftHandRing3
											{
												OFFSET 0.000000 0.000000 3.654984
												CHANNELS 6 Xposition Yposition Zposition Zrotation Yrotation Xrotation
												JOINT LeftHandRing4
												{
													OFFSET 0.000000 0.000000 2.741241
													CHANNELS 6 Xposition Yposition Zposition Zrotation Yrotation Xrotation
													End Site
													{
														OFFSET 0.000000 0.000000 0.100006
													}
												}
											}
										}
									}
									JOINT LeftHandPinky1
									{
										OFFSET 0.173492 4.467224 7.976990
										CHANNELS 6 Xposition Yposition Zposition Zrotation Yrotation Xrotation
										JOINT LeftHandPinky2
										{
											OFFSET 0.000000 0.000000 3.350403
											CHANNELS 6 Xposition Yposition Zposition Zrotation Yrotation Xrotation
											JOINT LeftHandPinky3
											{
												OFFSET 0.000000 0.000000 2.842758
												CHANNELS 6 Xposition Yposition Zposition Zrotation Yrotation Xrotation
												JOINT LeftHandPinky4
												{
													OFFSET 0.000000 0.000000 2.639709
													CHANNELS 6 Xposition Yposition Zposition Zrotation Yrotation Xrotation
													End Site
													{
														OFFSET 0.000000 0.000000 0.100006
													}
												}
											}
										}
									}
									JOINT LeftForeArmEnd
									{
										OFFSET 0.000000 0.000000 0.000000
										CHANNELS 6 Xposition Yposition Zposition Zrotation Yrotation Xrotation
										End Site
										{
											OFFSET 0.000000 0.000000 0.100006
										}
									}
								}
								JOINT LeftArmEnd
								{
									OFFSET 0.000000 0.000000 0.000000
									CHANNELS 6 Xposition Yposition Zposition Zrotation Yrotation Xrotation
									End Site
									{
										OFFSET 0.000000 0.000000 0.100006
									}
								}
							}
						}
					}
				}
			}
		}
	}
	JOINT RightUpLeg
	{
		OFFSET -11.289948 0.000000 0.000000
		CHANNELS 6 Xposition Yposition Zposition Zrotation Yrotation Xrotation
		JOINT RightLeg
		{
			OFFSET 0.000000 0.000000 -38.200329
			CHANNELS 6 Xposition Yposition Zposition Zrotation Yrotation Xrotation
			JOINT RightFoot
			{
				OFFSET 0.000000 0.000000 -39.900856
				CHANNELS 6 Xposition Yposition Zposition Zrotation Yrotation Xrotation
				JOINT RightToeBase
				{
					OFFSET 0.000000 -15.261658 0.000001
					CHANNELS 6 Xposition Yposition Zposition Zrotation Yrotation Xrotation
					JOINT RightToeBaseEnd
					{
						OFFSET 0.000000 -7.370728 0.000001
						CHANNELS 6 Xposition Yposition Zposition Zrotation Yrotation Xrotation
						End Site
						{
							OFFSET 0.000000 0.000000 0.100000
						}
					}
				}
				JOINT RightLegEnd
				{
					OFFSET 0.000000 0.000000 0.000000
					CHANNELS 6 Xposition Yposition Zposition Zrotation Yrotation Xrotation
					End Site
					{
						OFFSET 0.000000 0.000000 0.100000
					}
				}
			}
			JOINT RightUpLegEnd
			{
				OFFSET 0.000000 0.000000 0.000000
				CHANNELS 6 Xposition Yposition Zposition Zrotation Yrotation Xrotation
				End Site
				{
					OFFSET 0.000000 0.000000 0.099998
				}
			}
		}
	}
	JOINT LeftUpLeg
	{
		OFFSET 11.315674 0.000000 0.000000
		CHANNELS 6 Xposition Yposition Zposition Zrotation Yrotation Xrotation
		JOINT LeftLeg
		{
			OFFSET 0.000000 0.000000 -38.200329
			CHANNELS 6 Xposition Yposition Zposition Zrotation Yrotation Xrotation
			JOINT LeftFoot
			{
				OFFSET 0.000000 0.000000 -39.900856
				CHANNELS 6 Xposition Yposition Zposition Zrotation Yrotation Xrotation
				JOINT LeftToeBase
				{
					OFFSET 0.000000 -15.261658 0.000001
					CHANNELS 6 Xposition Yposition Zposition Zrotation Yrotation Xrotation
					JOINT LeftToeBaseEnd
					{
						OFFSET 0.000000 -7.539978 0.000001
						CHANNELS 6 Xposition Yposition Zposition Zrotation Yrotation Xrotation
						End Site
						{
							OFFSET 0.000000 0.000000 0.100000
						}
					}
				}
				JOINT LeftLegEnd
				{
					OFFSET 0.000000 0.000000 0.000000
					CHANNELS 6 Xposition Yposition Zposition Zrotation Yrotation Xrotation
					End Site
					{
						OFFSET 0.000000 0.000000 0.100000
					}
				}
			}
			JOINT LeftUpLegEnd
			{
				OFFSET 0.000000 0.000000 0.000000
				CHANNELS 6 Xposition Yposition Zposition Zrotation Yrotation Xrotation
				End Site
				{
					OFFSET 0.000000 0.000000 0.099998
				}
			}
		}
	}
}
MOTION
Frames: 2
Frame Time: 0.016667
10.126648 -52.173706 86.670044 -10.650646 -2.890165 -6.829905 -0.000000 2.080091 8.814251 0.109253 1.677986 7.462158 -0.000003 0.000025 8.844150 0.081520 -0.178508 3.581589 0.000012 -0.000010 11.682296 1.686566 -0.014481 6.135338 -0.000016 0.000022 11.746708 0.434415 0.342761 5.349442 0.000012 -0.000010 17.658298 1.514526 4.289822 -2.095493 -0.000007 0.000015 5.101538 -0.475335 0.261163 -6.799932 -0.000008 -0.000001 5.101523 1.012422 -1.122837 -15.556545 -0.000004 -0.000001 11.655071 0.000000 0.000000 -0.000000 -2.625412 0.000009 11.175241 11.015682 -85.052371 0.060086 0.000002 0.000011 10.434727 -57.648955 -56.808265 65.023913 0.000013 0.000008 29.628452 4.644749 0.188624 17.475795 0.000017 -0.000046 22.857563 8.786343 6.849398 -4.406555 -2.867326 -2.944260 3.959564 32.430862 -26.206054 38.950250 -0.000015 0.000015 3.350395 -32.457653 10.558206 -54.776451 0.000000 0.000023 3.756523 -21.577454 10.761439 -37.395190 -0.000016 0.000061 3.147352 -0.000000 0.000000 -0.000000 -0.086761 -2.345304 10.030889 170.615803 -99.346440 -179.889165 -0.000004 -0.000011 4.061085 6.190431 -56.715463 -12.361492 -0.000004 0.000006 3.248886 6.690447 -56.715459 -12.361507 -0.000001 -0.000002 2.639721 0.000000 0.000000 -0.000000 0.104103 -0.006783 9.502918 -33.225957 -78.313453 28.649345 -0.000019 -0.000018 4.568758 1.910330 -56.284860 -4.504458 0.000016 -0.000028 3.654968 2.410373 -56.284826 -4.504525 -0.000015 0.000001 2.741243 -0.000000 0.000000 0.000000 0.086768 2.267472 8.921702 102.151572 -104.819840 -100.491679 0.000015 0.000009 4.061115 -2.671521 -60.724234 6.263357 -0.000002 -0.000006 3.654974 -3.671514 -60.724227 6.263363 -0.000010 -0.000008 2.741241 0.000001 -0.000001 0.000000 -0.173483 4.467216 7.976969 -80.506709 -66.871151 90.191166 -0.000038 -0.000002 3.350403 -9.403005 -59.956630 19.638814 -0.000023 0.000027 2.842789 -11.403013 -59.956691 19.638810 0.000003 0.000063 2.639692 -0.000001 0.000000 -0.000000 0.000003 -0.000013 -0.000016 0.000002 0.000001 -0.000001 0.000012 -0.000001 0.000020 -0.000000 0.000001 -0.000000 2.625380 0.000007 11.175247 -12.639106 84.716346 -0.154297 0.000010 0.000004 10.813606 59.101647 56.952935 61.208583 -0.000017 0.000000 28.724773 -16.565055 1.301307 32.695293 0.644368 0.328856 25.716179 -17.294905 1.538868 -8.973981 2.867302 -2.944275 3.959625 -31.729852 22.942045 43.364226 -0.000023 0.000015 3.350426 25.337480 -11.058780 -43.400617 -0.000008 -0.000008 3.756504 16.725409 -9.787704 -29.562179 0.000002 -0.000006 3.100015 0.000001 0.000002 -0.000000 0.086754 -2.345266 10.030937 33.035678 57.038083 25.448100 0.000010 -0.000009 4.061096 2.370213 42.439818 7.383546 -0.000006 -0.000003 3.248905 2.870227 42.439872 7.383550 -0.000007 -0.000013 2.639714 0.000000 -0.000001 -0.000001 -0.104080 -0.006781 9.502922 21.551530 55.629422 19.375601 0.000007 0.000069 4.568745 0.449117 40.542989 2.569348 0.000012 -0.000012 3.654999 0.949118 40.542972 2.569340 -0.000002 0.000004 2.741242 -0.000001 0.000000 -0.000002 -0.086746 2.267445 8.921707 7.343774 57.390432 12.937778 0.000061 0.000002 4.061138 -0.080249 40.138484 -2.956270 0.000025 0.000011 3.655006 -1.080258 40.138450 -2.956285 0.000003 0.000007 2.741256 -0.000001 -0.000000 -0.000000 0.173508 4.467197 7.976994 -8.336814 55.784429 4.522385 -0.000004 -0.000028 3.350388 -0.808466 36.922883 -8.399048 0.000000 -0.000007 2.842773 -2.808471 36.922992 -8.399049 0.000003 -0.000000 2.639721 0.000000 -0.000000 -0.000002 0.000000 -0.000011 0.000006 0.000002 0.000000 0.000000 0.000004 -0.000019 0.000008 0.000003 0.000003 -0.000003 -11.289968 -0.000021 0.000004 8.289334 -0.836931 -5.615488 0.000014 0.000033 -38.200302 0.266483 -0.181185 34.612236 -0.000007 -0.000013 -39.900864 -9.617904 4.247075 7.569807 0.000016 -15.261644 0.000015 -0.412907 0.727165 -21.291335 -0.000022 -7.370667 0.000000 0.000000 0.000000 0.000000 -0.000002 0.000058 -0.000001 0.000001 0.000000 -0.000000 -0.000000 -0.000001 -0.000004 0.000000 -0.000000 0.000001 11.315651 0.000023 -0.000001 8.688049 3.105916 0.941781 -0.000027 0.000067 -38.200275 0.253042 -0.122148 25.878079 0.000008 0.000013 -39.900856 9.299300 -0.122009 9.789948 -0.000007 -15.261631 0.000007 -0.743248 -0.500119 -19.798751 0.000002 -7.539976 0.000004 -0.000000 -0.000000 -0.000002 -0.000000 -0.000060 0.000006 -0.000000 -0.000000 0.000001 -0.000028 -0.000000 0.000004 -0.000000 -0.000000 -0.000001 
10.163483 -52.282837 87.612778 -10.476360 -2.854306 -5.082286 -0.000045 2.080097 8.814247 0.129744 1.708414 6.047346 0.000015 -0.000078 8.844149 0.115778 -0.139760 3.077439 -0.000002 -0.000008 11.682268 1.953168 0.057839 5.403072 -0.000020 -0.000018 11.746696 0.571710 0.257085 4.938050 -0.000001 0.000037 17.658279 0.914899 3.103468 -0.894604 -0.000003 -0.000001 5.101497 -0.668972 0.142204 -6.074030 0.000008 0.000009 5.101545 1.032683 -1.307763 -15.013099 -0.000001 -0.000002 11.655092 0.000000 0.000000 0.000000 -2.625406 -0.000008 11.175230 10.867610 -84.649294 0.062349 -0.000015 -0.000013 10.434711 -60.101881 -56.052378 66.215214 0.000027 0.000000 29.628443 4.715536 0.181836 17.901111 -0.000011 -0.000048 22.857586 9.282331 6.229814 -4.737817 -2.867312 -2.944275 3.959564 32.376545 -26.012241 39.209797 0.000008 0.000076 3.350414 -32.043214 10.625946 -54.110504 0.000008 -0.000023 3.756554 -21.288247 10.722372 -36.931652 -0.000014 -0.000015 3.147361 0.000002 0.000002 -0.000000 -0.086769 -2.345256 10.030892 171.431943 -100.006291 -180.053253 0.000004 0.000015 4.061104 5.988371 -56.200808 -12.119056 -0.000015 -0.000088 3.248878 6.488368 -56.200897 -12.119069 0.000013 0.000029 2.639714 -0.000005 0.000000 0.000000 0.104092 -0.006774 9.502926 -31.514903 -77.783178 27.381510 0.000004 0.000047 4.568741 1.845897 -55.824024 -4.426806 0.000000 -0.000016 3.654964 2.345902 -55.824027 -4.426808 -0.000003 -0.000002 2.741259 0.000000 -0.000000 0.000001 0.086749 2.267465 8.921715 104.407091 -104.957386 -102.446629 -0.000025 0.000012 4.061102 -2.582977 -60.324019 6.161660 -0.000011 -0.000017 3.655010 -3.582984 -60.324080 6.161667 0.000002 -0.000001 2.741243 -0.000000 -0.000000 0.000000 -0.173496 4.467220 7.976980 -79.076939 -66.779053 89.014529 -0.000015 0.000011 3.350418 -9.163568 -59.616405 19.361710 -0.000027 -0.000011 2.842758 -11.163544 -59.616405 19.361708 -0.000007 0.000002 2.639706 -0.000000 -0.000003 -0.000002 0.000003 0.000002 -0.000003 -0.000000 0.000001 0.000001 0.000004 0.000004 0.000022 -0.000001 0.000000 0.000000 2.625427 -0.000019 11.175237 -12.541138 84.205707 -0.140225 0.000000 0.000003 10.813637 59.190030 59.609991 60.947110 -0.000032 -0.000023 28.724737 -13.247174 1.033602 32.608853 0.644384 0.328808 25.716158 -14.446227 2.818909 -8.331622 2.867310 -2.944321 3.959534 -31.758133 23.131844 43.104204 0.000000 0.000000 3.350426 25.758136 -11.067880 -44.071133 0.000023 -0.000008 3.756519 17.006268 -9.862951 -30.019665 -0.000007 -0.000003 3.100007 -0.000000 -0.000001 0.000001 0.086754 -2.345332 10.030945 34.738387 58.350361 27.807435 0.000017 0.000000 4.061092 2.583505 43.617943 7.696126 0.000019 -0.000003 3.248898 3.083531 43.617926 7.696121 -0.000008 0.000062 2.639725 -0.000001 -0.000001 -0.000001 -0.104084 -0.006826 9.502930 22.687064 57.043462 20.837447 0.000011 -0.000003 4.568760 0.515953 41.643739 2.671029 0.000005 0.000011 3.655005 1.015942 41.643756 2.671030 0.000025 0.000012 2.741269 -0.000001 0.000001 0.000001 -0.086742 2.267460 8.921707 7.866562 58.721254 13.530980 0.000008 0.000003 4.061100 -0.145093 41.075740 -3.055894 0.000029 -0.000004 3.655025 -1.145086 41.075801 -3.055887 0.000040 0.000004 2.741245 -0.000001 -0.000002 -0.000000 0.173492 4.467142 7.976995 -8.368677 56.918350 4.631472 -0.000015 0.000002 3.350410 -0.945893 37.653416 -8.625878 0.000002 0.000007 2.842758 -2.945898 37.653419 -8.625874 -0.000000 0.000010 2.639717 0.000000 -0.000001 -0.000002 0.000011 -0.000068 0.000023 0.000002 0.000000 0.000001 -0.000023 -0.000019 -0.000008 0.000003 -0.000002 0.000000 -11.289975 0.000058 0.000005 9.326452 -0.745249 -5.310836 -0.000006 0.000036 -38.200279 0.265792 -0.156966 30.563594 0.000014 0.000008 -39.900848 -10.470152 4.296587 10.276039 0.000004 -15.261660 0.000004 -0.507289 0.765685 -21.957323 -0.000007 -7.370658 0.000002 -0.000001 0.000000 -0.000001 -0.000002 0.000057 0.000000 0.000001 0.000001 -0.000000 0.000001 0.000000 -0.000009 0.000000 -0.000000 -0.000001 11.315642 0.000022 0.000005 8.076561 3.459534 1.307552 -0.000016 0.000064 -38.200314 0.322258 -0.124670 21.429549 -0.000002 0.000002 -39.900856 9.706009 -0.379426 13.332049 0.000003 -15.261643 0.000002 -0.617627 -0.571095 -20.975740 0.000002 -7.539977 0.000002 -0.000000 0.000000 -0.000001 -0.000000 0.000004 0.000005 -0.000001 0.000000 -0.000002 -0.000002 0.000059 -0.000002 -0.000000 -0.000000 -0.000001 
